<?xml version="1.0" standalone="no"?>
<!DOCTYPE svg PUBLIC "-//W3C//DTD SVG 1.1//EN" "http://www.w3.org/Graphics/SVG/1.1/DTD/svg11.dtd">
<svg xmlns="http://www.w3.org/2000/svg">
<metadata>Copyright (C) 2015 by original authors @ fontello.com</metadata>
<defs>
<font id="granada-font" horiz-adv-x="1000" >
<font-face font-family="granada-font" font-weight="400" font-stretch="normal" units-per-em="1000" ascent="850" descent="-150" />
<missing-glyph horiz-adv-x="1000" />
<glyph glyph-name="user" unicode="&#xe800;" d="m1070-88q0-21-2-63h-1067q0 10 0 31t-1 32q0 30 1 37 12 49 64 85t112 53 125 47 97 65q17 22 17 38 0 22-11 73-4 21-10 37t-16 33-16 31q-15 35-33 132-6 38-6 75 0 105 54 168t157 63 158-63 53-168q0-31-7-75-14-89-32-132-6-14-15-31t-16-33-11-37q-11-51-11-73 0-18 17-38 31-36 97-65t125-47 111-53 64-85q2-8 2-37z" horiz-adv-x="1070" />
<glyph glyph-name="graph-bar" unicode="&#xe801;" d="m356 348h-171c-5 0-10-4-10-10v-328c0-6 5-10 10-10h171c6 0 10 4 10 10v328c0 6-4 10-10 10z m-9-329h-152v309h152v-309z m228-19c5 0 9 4 9 10v638c0 6-4 10-9 10h-172c-5 0-9-4-9-10v-638c0-6 4-10 9-10h172z m-162 638h152v-619h-152v619z m380-638c5 0 10 4 10 10v434c0 6-5 10-10 10h-171c-6 0-10-4-10-10v-434c0-6 4-10 10-10h171z m-162 434h152v-415h-152v415z" horiz-adv-x="1000" />
<glyph glyph-name="favourites" unicode="&#xe802;" d="m865 428c-1 4-6 14-22 14h-245l-76 233c-5 15-15 17-19 17-5 0-15-2-20-17l-76-233h-245c-16 0-21-11-22-14-1-3-4-14 10-23l198-145-76-233c-3-10 0-17 2-21 7-9 20-10 30-2l199 144 198-144c5-4 10-6 15-6 6 0 11 3 15 8 3 4 5 11 2 21l-76 233 199 145c12 9 11 19 9 23z m-237-148c-5-4-8-12-6-19l69-209-179 129c-5 4-13 4-19 0l-178-129 68 210c2 6 0 14-6 18l-179 129h221c7 0 13 5 15 12l69 209 68-210c2-6 8-11 15-11h221l-179-129z" horiz-adv-x="1000" />
<glyph glyph-name="heart-cart" unicode="&#xe803;" d="m510 23c-7 0-15 3-21 8 0 1-49 48-245 244l-1 2c-2 2-3 3-4 4-32 35-50 80-50 127 0 102 83 186 186 186 51 0 98-20 133-56 35 36 83 56 133 56 103 0 187-84 187-186 0-52-21-100-58-135-1-1-1-2-2-2-198-198-235-238-236-238-5-6-13-10-21-10l-1 0z m-135 551c-92 0-166-75-166-166 0-42 16-83 45-114 1-1 1-2 3-3l1-2c197-196 245-243 245-243 2-2 5-3 7-3l1 0c2 0 5 1 7 3 0 1 38 41 236 239l1 2c34 32 53 74 53 121 0 91-75 166-167 166-48 0-94-21-125-57l-8-9-7 9c-32 36-77 57-126 57z" horiz-adv-x="1000" />
<glyph glyph-name="list-icon" unicode="&#xe804;" d="m137 850c-76 0-137-61-137-137 0-76 61-137 137-137 76 0 137 61 137 137 0 76-61 137-137 137z m0-202c-36 0-64 29-64 65 0 36 28 64 64 64s64-28 64-64c0-36-29-65-64-65z m274 29h581c20 0 37 16 37 36 0 20-17 36-37 36h-581c-20 0-37-16-37-36 0-20 17-36 37-36z m-274-190c-76 0-137-61-137-137 0-76 61-137 137-137 76 0 137 61 137 137 0 76-61 137-137 137z m0-201c-36 0-64 28-64 64 0 36 28 65 64 65s64-29 64-65c0-36-29-64-64-64z m855 100h-581c-20 0-37-16-37-36 0-20 17-36 37-36h581c20 0 37 16 37 36 0 20-17 36-37 36z m-855-262c-76 0-137-61-137-137s61-137 137-137c76 0 137 61 137 137s-61 137-137 137z m0-201c-36 0-64 28-64 64 0 36 28 65 64 65s64-29 64-65c0-36-29-64-64-64z m855 100h-581c-20 0-37-16-37-36 0-20 17-36 37-36h581c20 0 37 16 37 36 0 20-17 36-37 36z" horiz-adv-x="1029" />
<glyph glyph-name="user-icon" unicode="&#xe805;" d="m528 759c-8 0-14 0-17 0-3 0-10 1-18 1-27 0-79-6-119-47-38-38-57-96-57-172 1-132 51-210 94-251 47-46 93-60 95-61 2 0 3 0 5 0 1 0 2 0 4 0 2 1 209 59 199 312-7 203-144 218-186 218z m-17-498c-26 9-162 68-162 280-1 68 15 118 47 150 32 32 75 37 97 37 9 0 15-1 15-1 2 0 4 0 5 0 0 0 6 1 15 1 44 0 149-18 155-188 8-211-144-270-172-279z m166 26c-2-8 3-17 11-19 42-11 145-44 201-118v-170h-737v170c56 73 157 106 198 117 8 3 13 11 11 20-2 8-11 13-19 11-56-15-159-53-218-134-2-2-3-5-3-9v-191c0-8 7-15 16-15h767c9 0 16 7 16 15v191c0 4-1 7-3 9-61 85-175 122-221 134-8 3-17-2-19-11z" horiz-adv-x="1000" />
<glyph glyph-name="right240" unicode="&#xe806;" d="m970 331l-228 131c-9 6-21 3-26-7-6-9-3-21 7-26l164-95h-839c-11 0-20-9-20-20 0-11 9-19 20-19h839l-164-95c-10-6-13-18-7-27 3-6 10-10 16-10 4 0 7 1 10 3l228 131c6 4 10 10 10 17 0 7-4 14-10 17z" horiz-adv-x="1000" />
<glyph glyph-name="search84" unicode="&#xe807;" d="m828 53l-187 188c47 47 78 115 78 187 0 147-119 266-266 266s-265-119-265-266 118-265 265-265c56 0 110 18 153 50l191-191c9-9 22-9 31 0 10 9 10 22 0 31z m-375 141c-128 0-234 106-234 234s106 235 234 235 235-107 235-235-107-234-235-234z" horiz-adv-x="1000" />
<glyph glyph-name="special1" unicode="&#xe808;" d="m915 650h-198c10 6 18 14 23 22 12 22 8 48-10 79l-2 1c-21 24-43 36-66 36-44 0-80-40-116-79-18-21-36-40-52-51-16 11-34 30-52 51-36 39-72 79-116 79-23 0-46-12-67-36l-1-1c-19-31-22-57-10-79 5-8 13-16 23-22h-186v-180h47v-558h288 157 291v558h47v180z m-350 42c31 35 64 71 97 71 16 0 31-8 47-26 13-22 16-40 9-52-10-19-44-31-96-36h-89c-3 1-6 1-9 1 13 12 27 27 41 42z m-12-197h-108v121h108v-121z m-283 190c-8 12-4 30 9 52 16 18 31 26 47 26 33 0 65-36 97-71 14-15 27-30 41-42-3 0-6 0-9 0h-89c-52 4-86 16-96 35z m-160-60h255c13-1 27-2 42-2l0 0c5 0 9 0 13 0v-128h-310v130z m46-688v533h264v-533h-264z m289 0v533h108v-533h-108z m399 0h-267v533h267v-533z m46 558h-313v128c1 0 2 0 3 0 16 0 29 1 42 2h268v-130z" horiz-adv-x="1000" />
<glyph glyph-name="star105" unicode="&#xe809;" d="m43 437c75-69 155-132 241-187-28-96-59-192-93-288-6-17 6-29 20-32 7-4 16-5 26 2 83 60 169 116 253 174 86-62 169-128 259-185 20-12 38 5 39 23 1 4 2 8 0 13-23 96-51 191-94 280 92 59 166 140 252 206 16 13 9 31-4 40-5 5-11 9-20 9h-289c-38 97-78 194-109 293-9 30-52 22-53-4-45-96-86-193-110-297-103 1-205 5-308 6-31 0-34-44-10-53z m331-7c2 0 5 0 7 1 12-2 24 4 27 19 18 88 50 172 87 253 28-81 61-162 93-242 0-1 0-1 0-1 2-12 11-22 26-22h242c-67-58-130-120-207-165-6-4-9-8-11-13-5-7-7-17-1-27 37-73 62-150 83-228-71 49-141 103-211 154-2 2-4 3-6 4-7 5-17 6-27-1-69-48-139-94-208-142 26 76 50 153 73 230 3 13-2 22-10 28-1 5-5 10-11 14-68 42-132 90-193 143 83-2 165-5 247-5z" horiz-adv-x="1000" />
<glyph glyph-name="table41" unicode="&#xe80a;" d="m0 850v-1000h1000v1000h-1000z m936-627h-248v252h248v-252z m-311 0h-250v252h250v-252z m0-60v-251h-250v251h250z m-562 312h250v-252h-250v252z m312 63v248h250v-248h-250z m-62 248v-248h-250v248h250z m-250-623h250v-251h-250v251z m625-251v251h248v-251h-248z m248 626h-248v248h248v-248z" horiz-adv-x="1000" />
<glyph glyph-name="thin4" unicode="&#xe80b;" d="m873 393l-7 10-188 188c-12 12-32 12-44 0-12-12-12-32 0-44l134-134h-612c-17 0-31-14-31-32s14-31 31-31h612l-134-134c-12-12-12-32 0-44 12-12 32-12 44 0l188 187 7 10 2 12v0l-2 12z" horiz-adv-x="1000" />
<glyph glyph-name="date3" unicode="&#xe80c;" d="m681 578v52h-20v-52h-256v52h-20v-52h-125v-548h549v548h-128z m-296-20v-33h20v33h256v-33h20v33h108v-96h-509v96h105z m-105-509v393h509v-392h-509z m152 138l16 14c41 40 67 70 67 106 0 28-18 57-60 57-22 0-42-9-55-20l8-19c9 8 24 17 42 17 29 0 39-19 39-39-1-29-23-55-73-102l-21-20v-17h125v22h-88v1z m196 83v1c24 9 36 26 36 46 0 24-18 47-56 47-21 0-41-8-52-15l7-20c9 6 24 13 40 13 24 0 34-14 34-29 0-23-24-33-44-33h-15v-20h15c26 0 51-12 51-40 0-16-10-38-44-38-19 0-36 8-44 13l-7-21c10-6 29-13 51-13 47 0 71 27 71 59 0 27-19 45-43 50z" horiz-adv-x="1000" />
<glyph glyph-name="right106" unicode="&#xe80d;" d="m1099 350l-500-500-15 15 485 485-485 485 15 15 500-500z m-42 11h-1057v-22h1057v22z" horiz-adv-x="1097.7" />
<glyph glyph-name="thin35" unicode="&#xe80e;" d="m30 350l485-485-15-15-500 500 500 500 15-15-485-485z m12 11v-22h1057v22h-1057z" horiz-adv-x="1097.7" />
<glyph glyph-name="glyph" unicode="&#xe80f;" d="m1000 794l-56 56-444-444-444 444-56-56 444-444-444-444 56-56 444 445 444-445 56 56-444 444z" horiz-adv-x="1000" />
<glyph glyph-name="facebook" unicode="&#xe810;" d="m0 350h97v-469h193v469h130l17 161h-146v81q0 18 2 28t8 20 19 13 35 4h81v161h-129q-112 0-161-53t-49-157v-97h-97v-161z" horiz-adv-x="437.5" />
<glyph glyph-name="twitter" unicode="&#xe811;" d="m749-25c0-34-13-64-37-88-25-25-54-37-89-37l-248 0c-103 0-192 36-265 110-73 73-110 161-110 264l0 501c0 35 12 65 37 89 24 24 54 36 89 36 34 0 64-12 88-37 25-24 37-54 37-88l0-181 353 0c32 0 60-12 83-35 22-22 34-49 34-81 0-32-12-59-34-82-23-23-51-34-82-34l-354 0 0-88c0-34 12-64 36-88 24-24 54-36 88-36l248 0c35 0 64-12 89-37 24-24 37-54 37-88" horiz-adv-x="749" />
<glyph glyph-name="linkedin" unicode="&#xe812;" d="m0 730q0 50 35 83t91 32q55 0 89-32 35-33 35-86 0-48-34-80-35-33-92-33l-1 0q-55 0-89 33t-34 83z m13-875l0 668 222 0 0-668-222 0z m345 0l222 0 0 373q0 35 8 54 14 34 43 58t71 23q112 0 112-151l0-357 222 0 0 383q0 148-70 225t-185 76q-129 0-201-111l0-2-1 0 1 2 0 95-222 0q2-32 2-199t-2-469z" horiz-adv-x="1036" />
<glyph glyph-name="email" unicode="&#xe813;" d="m0 62l0 576q0 1 3 19l339-290-338-325q-4 14-4 20z m45 635q7 3 17 3l913 0q9 0 18-3l-340-291-45-36-89-73-89 73-45 36z m1-694l341 327 132-107 132 107 341-327q-8-3-17-3l-913 0q-8 0-16 3z m650 364l338 290q3-9 3-19l0-576q0-9-3-20z" horiz-adv-x="1037" />
<glyph glyph-name="gplus" unicode="&#xe814;" d="m0 57q0-39 17-68 30-55 105-82 63-26 136-26t133 20 100 52 60 74 22 87q0 63-34 108-26 36-69 68-15 11-32 28-34 28-34 55 0 32 45 73 15 13 37 36 19 21 32 54t12 72q0 51-22 96t-62 70h76l76 44h-246q-53 0-106-11-78-17-131-80t-53-141q0-82 59-138t145-55q8 0 39 3-2-6-9-24-4-11-4-25 0-38 36-84-37 0-84-7-110-18-169-60-34-25-55-64t-20-75z m104 26q0 34 16 61 27 47 94 68 58 18 120 18 9 0 28-2 1 0 16-11t20-13q14-9 36-27 1-2 9-9t13-12 8-10q2-2 3-5t4-6 5-7q6-9 10-19 7-24 7-43 0-35-15-61t-42-42q-50-30-120-30-76 0-139 35-33 17-53 47t-20 68z m61 563q0 57 30 94t81 38q36 0 66-22t48-60q36-74 36-145 0-59-26-92t-77-32q-28 0-55 14-45 26-76 91-27 57-27 114z m412-43h144v-145h72v145h144v72h-144v143h-72v-143h-144v-72z" horiz-adv-x="937.5" />
<glyph glyph-name="pinterest" unicode="&#xe815;" d="m0 491q0 63 27 125t76 115 130 86 178 33q159 0 261-98t102-231q0-171-86-282t-224-112q-45 0-84 21t-56 51l-40-158q-5-19-13-38t-17-38-19-34-19-30-17-24-13-16l-6-8q-3-4-8-3t-6 6q0 1-1 14t-3 27-3 38-1 44 3 48 7 48q11 47 74 313-8 16-13 39t-5 36l-1 15q0 64 33 107t78 42q37 0 58-24t20-62q0-23-8-56t-23-77-20-71q-10-45 18-78t73-33q79 0 131 90t51 216q0 97-63 159t-176 61q-126 0-204-81t-79-194q0-67 38-113 13-15 8-32-2-5-6-23t-6-23q-2-11-10-14t-18 0q-59 24-88 83t-30 136z" horiz-adv-x="774" />
<glyph glyph-name="linkedin-1" unicode="&#xe816;" d="m238-150l0 675-225 0 0-675 225 0z m-113 767c79 0 127 52 127 116-1 67-48 117-125 117-77 0-127-50-127-117 0-64 49-116 124-116l1 0z m237-767l224 0 0 377c0 20 1 40 7 55 17 40 53 82 115 82 82 0 114-62 114-153l0-361 224 0 0 387c0 207-110 304-258 304-121 0-174-68-204-114l2 0 0 98-224 0c3-64 0-675 0-675z" horiz-adv-x="1046" />
<glyph glyph-name="shopping111" unicode="&#xe817;" d="m867 568c-4 6-11 10-19 10l-460 20c-13 1-24-10-25-23 0-13 10-24 23-25l429-18-84-263h-376l-68 369c-1 8-7 15-14 18l-111 44c-13 4-27-2-31-14-5-12 1-26 13-31l99-39 69-375c2-12 12-20 23-20h12l-26-73c-3-6-2-12 2-18s10-8 16-8h19c-12-13-19-29-19-48 0-39 32-71 72-71s71 32 71 71c0 19-7 35-18 48h156c-12-13-19-29-19-48 0-39 32-71 72-71s71 32 71 71c0 19-7 35-18 48h22c11 0 20 9 20 20s-9 20-20 20h-380l21 59h359c10 0 20 7 23 17l99 309c2 7 1 15-3 21z m-456-525c-18 0-32 14-32 31s14 32 32 32 32-14 32-32-15-31-32-31z m262 0c-18 0-32 14-32 31s14 32 32 32 31-14 31-32-14-31-31-31z" horiz-adv-x="1000" />
<glyph glyph-name="shopping cart" unicode="&#xe818;" d="m679 305h-578c-4 0-7 3-7 7 0 4 3 7 7 7h573l83 250h-602c-2 0-4 0-5 2l-148 148c-3 2-3 6 0 9 3 3 7 3 9 0l146-146h609c2 0 4-1 6-3 1-1 1-4 0-6l-86-263c-1-3-4-5-7-5z m-634-146c0 0-1 0-2 0-3 1-5 5-4 9l48 146c1 4 5 5 9 4 3-1 5-5 4-8l-48-147c-1-2-4-4-7-4z m488 0h-488c-3 0-6 3-6 6s3 7 6 7h488c4 0 7-3 7-7s-3-6-7-6z m-369-188c-56 0-101 45-101 101 0 56 45 101 101 101s101-45 101-101c0-56-46-101-101-101z m0 189c-49 0-88-40-88-88 0-49 39-88 88-88s87 39 87 88c0 48-39 88-87 88z m369-190c-50 0-92 36-100 86 0 4 2 7 6 7 4 1 7-2 8-5 6-43 42-75 86-75 48 0 88 40 88 88 0 49-40 88-88 88-4 0-7 3-7 7s3 6 7 6c55 0 101-45 101-101s-45-101-101-101z" horiz-adv-x="773.4" />
<glyph glyph-name="chain" unicode="&#xe819;" d="m672 636c-22 23-50 34-83 34-32 0-60-11-83-34l-107-107c-17-17-28-38-32-62s-1-47 8-68l-37-37c-22 9-44 12-69 8s-45-15-62-32l-107-108c-22-22-34-50-34-83 0-32 12-60 34-83 23-23 51-34 83-34s61 11 84 34l107 107c17 17 28 38 32 62s1 48-8 69l37 36c21-9 44-12 68-8s45 16 63 33l106 107c23 22 34 50 34 83s-11 60-34 83z m-337-427l-106-107c-13-12-28-19-45-19-18 0-33 7-45 19-13 13-19 28-19 45s6 32 19 45l106 107c13 13 28 19 46 19 0 0 1 0 3-1l-49-49c-9-8-13-18-13-30s4-22 13-30c8-8 18-12 29-12s22 4 30 13l50 49c1-19-5-35-19-49z m299 299l-106-107c-14-14-30-20-50-18l50 49c8 8 12 19 12 30 0 12-4 22-12 30s-18 12-30 12-21-4-29-12l-50-50c-1 19 5 35 19 49l106 107c13 13 28 19 45 19s32-6 45-19 19-28 19-45-6-32-19-45z" horiz-adv-x="773.4" />
<glyph glyph-name="two92" unicode="&#xe81a;" d="m453 283l-28 28c-35 36-35 93 0 128l170 169c35 36 92 36 127 0l28-28c35-35 35-92 0-127l-87-87-14 14 87 87c27 27 27 72 0 99l-28 28c-28 28-72 28-99 0l-170-169c-27-28-27-72 0-99l28-29-14-14z m-175-191l-28 28c-35 35-35 92 0 127l87 87 14-14-87-87c-27-27-27-72 0-99l28-28c28-27 72-27 99 0l170 170c27 27 27 71 0 99l-28 28 14 14 28-28c35-35 35-93 0-128l-170-169c-35-35-92-35-127 0z" horiz-adv-x="1000" />
<glyph glyph-name="web38" unicode="&#xe81b;" d="m880 708h-564c-10 0-19-9-19-19 0-11 9-20 19-20h545v-638h-545c-10 0-19-9-19-20 0-10 9-19 19-19h564c11 0 20 9 20 19v678c0 10-9 19-20 19z m-485-476c-8-7-8-19 0-27 4-4 9-6 14-6 5 0 9 2 13 6l120 119c7 8 7 20 0 28l-120 119c-7 8-20 8-27 0-8-7-8-20 0-27l86-87h-361c-11 0-20-8-20-19 0-11 9-19 20-19h361l-86-87z" horiz-adv-x="1000" />
<glyph glyph-name="check25" unicode="&#xe81c;" d="m59 791v-882h882v882h-882z m860-860h-838v838h838v-838z m-112 645l-13 14-383-383-157 157-14-14 171-170z" horiz-adv-x="1000" />
<glyph glyph-name="verified10" unicode="&#xe81d;" d="m749 15l-643 0 0 644 601 0 99 98-799 0 0-840 841 0 0 563-99-99z m-405 545l-104-104 265-265 488 488-104 104-384-384z" horiz-adv-x="1000" />
<glyph glyph-name="check20" unicode="&#xe81e;" d="m63 788v-876h875v876h-875z m64-811v746h746v-746h-746z m289 268l-148 148-43-43 191-191 404 404-43 44z" horiz-adv-x="1000" />
<glyph glyph-name="glyph-1" unicode="&#xe81f;" d="m946-83h-467v-67h534v1000h-534v-67h467z m-458 747l-48-47 256-256h-696v-66h674l-234-234 48-47 277 278 1-1 47 48z" horiz-adv-x="1012.7" />
<glyph glyph-name="glyph-2" unicode="&#xe820;" d="m67 783h466v67h-533v-1000h533v67h-466z m621-97l-48-47 256-256h-696v-66h674l-234-234 48-47 277 278 1 0 47 47z" horiz-adv-x="1012.7" />
<glyph glyph-name="glyph-3" unicode="&#xe821;" d="m781 366c31 49 49 107 49 168 0 174-141 315-315 315-174 0-315-141-315-315 0-61 18-117 48-165-148-90-248-252-248-438 0-28 3-55 7-81h1010c4 26 7 53 7 81 0 184-97 345-243 435z m-266 421c139 0 252-113 252-253s-113-252-252-252-252 113-252 252 113 253 252 253z m-452-862c0 2 0 4 0 6 0 165 89 310 223 388 57-61 139-100 229-100 89 0 169 38 227 97 131-78 220-221 220-385 0-2-1-4-1-6h-898z" horiz-adv-x="1024.4" />
<glyph glyph-name="glyph-4" unicode="&#xe822;" d="m862 600h-174c0 138-112 250-250 250-138 0-250-112-250-250h-188v-750h876v750h-14z m-49-687h-750v625h125v-188h64v250c0 103 83 186 186 186 103 0 186-83 186-186v-250h64v188h125v-625z m-499 687h248v-62h-248v62z" horiz-adv-x="876" />
<glyph glyph-name="anniversary" unicode="&#xe823;" d="m974 600h-278l64 31c3 2 7 4 10 7 23 24 36 55 36 88 0 33-13 64-36 88-49 48-127 48-175 0-3-3-5-6-7-9l-89-165-88 165c-2 3-4 6-7 9-48 48-126 48-175 0-48-49-48-127 0-176 3-3 7-5 10-7l64-31h-265c-21 0-38-18-38-39v-227c0-21 17-38 38-38h44v-408c0-21 17-38 39-38h773c21 0 38 17 38 38v408h42c21 0 38 17 38 38v227c0 21-17 39-38 39z m-509-674v370h83v-370h-83z m84 446h-83v151h83v-151z m103 391c19 15 46 14 64-3 9-9 14-21 14-34 0-11-4-21-11-30l-140-69 73 136z m-369-3c17 16 46 18 64 3l73-136-140 69c-15 19-14 46 3 64z m-207-237h314v-151h-314v151z m83-227h268v-370h-268v370z m697-370h-270v370h270v-370z m80 446h-311v151h311v-151z" horiz-adv-x="1011.7" />
<glyph glyph-name="checked11" unicode="&#xe824;" d="m0 850v-1000h1000v1000h-1000z m950-950h-900c0 158 0 742 0 900h900v-900z m-622 253l99-99 99 99 297 297-2 196-394-394-250 250 2-201z" horiz-adv-x="1000" />
<glyph glyph-name="present1" unicode="&#xe825;" d="m938 600h-875c-35 0-63-28-63-62v-188h63v-438c0-34 28-62 62-62h750c35 0 63 28 63 62v438h62v188c0 34-28 62-62 62z m-500-688h-313v438h313v-438z m0 501h-375v125h375v-125z m437-501h-311v438h311v-438z m63 501h-374v125h374v-125z m-688 250h250l0 0h0l0 0h250c86 0 125 42 125 93s-39 94-125 94c-81 0-144-36-187-79-19 12-41 18-65 18-22 0-43-6-62-16-43 41-106 77-186 77-86 0-125-42-125-94s39-93 125-93z m500 125c29 0 63-6 63-32s-34-31-63-31h-142l-1 3c31 31 80 60 143 60z m-500 0c62 0 109-28 141-58l-3-5h-138c-28 0-62 5-62 31s34 32 62 32z" horiz-adv-x="1000" />
<glyph glyph-name="magnifier32" unicode="&#xe826;" d="m625 850c-207 0-375-168-375-375 0-87 30-166 79-230l-315-315c-9-9-14-21-14-33 0-12 5-24 14-33 9-9 21-14 33-14 12 0 24 5 33 14l315 315c64-49 143-79 230-79 207 0 375 168 375 375 0 207-168 375-375 375z m0-656c-155 0-281 126-281 281 0 155 126 281 281 281 155 0 281-126 281-281 0-155-126-281-281-281z" horiz-adv-x="1000" />
<glyph glyph-name="magnifying7" unicode="&#xe827;" d="m181 35c21-20 62-13 89 17l147 155c46-35 104-57 166-57 152 0 276 124 276 276 0 152-124 275-276 275-152 0-275-123-275-275 0-56 17-107 45-151-16-3-32-12-45-26l-166-177 39-37z m402 592c112 0 202-90 202-201 0-112-90-202-202-202-111 0-202 90-202 202 0 111 91 201 202 201z" horiz-adv-x="1000" />
<glyph glyph-name="angle-down" unicode="&#xe828;" d="m600 439q0-7-6-13l-260-260q-5-5-13-5t-12 5l-260 260q-6 6-6 13t6 13l27 28q6 6 13 6t13-6l219-219 220 219q5 6 13 6t12-6l28-28q6-5 6-13z" horiz-adv-x="642.9" />
<glyph glyph-name="angle-up" unicode="&#xe829;" d="m600 189q0-7-6-13l-28-27q-5-6-12-6t-13 6l-220 219-219-219q-5-6-13-6t-13 6l-27 27q-6 6-6 13t6 13l260 260q5 6 12 6t13-6l260-260q6-5 6-13z" horiz-adv-x="642.9" />
<glyph glyph-name="down-open-big" unicode="&#xe82a;" d="m63 570l370-356 372 356q22 26 48 0 26-22 0-48l-396-392q-22-22-48 0l-396 392q-26 26 0 48 24 24 50 0z" horiz-adv-x="866" />
<glyph glyph-name="up-open-big" unicode="&#xe82b;" d="m804 130l-372 358-370-358q-26-22-50 0-24 24 0 50l396 390q26 26 48 0l396-390q24-26 0-50-26-22-48 0z" horiz-adv-x="864" />
<glyph glyph-name="minus104" unicode="&#xe82c;" d="m0 373l773 0 0-46-773 0z" horiz-adv-x="773.4" />
<glyph glyph-name="plus79" unicode="&#xe82d;" d="m773 374l-362 0 0 362-49 0 0-362-362 0 0-48 362 0 0-362 49 0 0 362 362 0z" horiz-adv-x="773.4" />
<glyph glyph-name="glyph-5" unicode="&#xe82e;" d="m63 671h875v-76h-875v76z m0-281h875v-75h-875v75z m0-285h875v-75h-875v75z" horiz-adv-x="1000" />
<glyph glyph-name="menu27" unicode="&#xe82f;" d="m0 400h1200v-100h-1200v100z m0 450v-100h1200v100h-1200z m0-1000h1200v100h-1200v-100z" horiz-adv-x="1199.2" />
<glyph glyph-name="thumbs-up" unicode="&#xe830;" d="m143 100q0 15-11 25t-25 11-25-11-11-25 11-25 25-11 25 11 11 25z m643 321q0 29-22 50t-50 22h-196q0 32 27 89t26 89q0 55-17 81t-72 27q-14-15-21-48t-17-70-33-61q-13-13-43-51-2-3-13-17t-18-22-19-24-22-25-22-19-22-16-20-5h-18v-357h18q7 0 18-1t18-4 21-6 20-7 20-7 16-5q118-41 191-41h67q107 0 107 93 0 15-2 31 16 9 26 30t10 41-10 38q29 28 29 67 0 13-5 31t-14 26q18 1 30 26t12 45z m71 1q0-50-27-91 5-18 5-38 0-43-21-81 1-12 1-24 0-56-33-99 0-78-48-123t-126-45h-72q-54 0-106 13t-121 36q-65 23-77 23h-161q-29 0-50 21t-21 50v357q0 30 21 51t50 21h153q20 13 77 86 32 42 60 72 13 14 19 47t17 71 35 60q22 21 50 21 47 0 84-18t57-57 20-104q0-51-27-107h98q58 0 101-42t42-100z" horiz-adv-x="857.1" />
<glyph glyph-name="arrow382" unicode="&#xe831;" d="m987 359l-478 478c0 0 0 0 0 0l-13 13-13-13 0 0-478-478c-7-7-7-19 0-26 8-7 19-7 26 0l447 447v-912c0-10 8-18 18-18s19 8 19 18v912l446-447c4-3 8-5 13-5s9 2 13 5c7 7 7 19 0 26z" horiz-adv-x="992.2" />
<glyph glyph-name="up77" unicode="&#xe832;" d="m910 395l-13-14-442 442-441-442-14 14 455 455 455-455z m-464-545h19v962h-19v-962z" horiz-adv-x="910.2" />
<glyph glyph-name="arrow383" unicode="&#xe833;" d="m987 367c-7 7-19 7-26 0l-446-447v912c0 10-9 18-19 18s-18-8-18-18v-912l-447 447c-7 7-18 7-26 0s-7-19 0-26l478-478 0 0 13-13 13 13c0 0 0 0 0 0l478 478c7 7 7 19 0 26z" horiz-adv-x="992.2" />
<glyph glyph-name="thin36" unicode="&#xe834;" d="m910 305l-455-455-455 455 14 14 441-442 442 442 13-14z m-445 545h-19v-962h19v962z" horiz-adv-x="910.2" />
<glyph glyph-name="calendar151" unicode="&#xe835;" d="m890 757h-97v50c0 19-16 35-35 35s-35-16-35-35v-50h-441v50c0 19-15 35-35 35s-35-16-35-35v-50h-97c-53 0-95-43-95-95v-704c0-52 42-95 95-95h775c53 0 95 43 95 95v704c0 52-42 95-95 95z m-800-95c0 14 11 25 25 25h97v-40c0-19 16-35 35-35s35 16 35 35v40h441v-40c0-19 15-35 35-35s35 16 35 35v40h97c14 0 25-11 25-25v-88h-825v88z m825-704c0-14-11-25-25-25h-775c-14 0-25 11-25 25v546h825v-546z" horiz-adv-x="1000" />
<glyph glyph-name="empty32" unicode="&#xe836;" d="m938 725h-125v78c0 26-21 47-47 47-26 0-47-21-47-47v-78h-438v78c0 26-21 47-47 47-25 0-46-21-46-47v-78h-125c-35 0-63-28-63-62v-751c0-34 28-62 63-62h875c34 0 62 28 62 62v751c0 34-28 62-62 62z m-32-781h-812v500h812v-500z m0 594h-812v93h812v-93z" horiz-adv-x="1000" />
<glyph glyph-name="speech44" unicode="&#xe837;" d="m245 564l530 0 0-23-516 0z m0-127l530 0 0-23-516 0z m-185 349v-612h170l0-260 260 260h450v612h-880z m193-816l0 227h-170v566h834v-566h-436l-228-227z" horiz-adv-x="1000" />
<glyph glyph-name="2424" unicode="&#xe838;" d="m929 78l-141 141c-11 11-26 17-43 17-17 0-35-7-47-19l-76-76-20 12c-46 25-108 59-173 125-66 66-101 128-126 173l-11 20 76 77c25 25 26 65 2 90l-141 141c-11 11-26 17-43 17-18 0-35-7-47-19l-35-35-3-5c-13-17-23-36-31-56-7-19-12-38-14-56-18-151 51-290 241-479 224-224 411-242 463-242 9 0 14 1 16 1 19 2 38 7 56 14 20 8 39 18 55 31l8 7 33 31c25 26 26 66 1 90z m-19-72l-25-25c-12-11-32-27-62-39-17-6-33-10-50-12-1-1-5-1-11-1-50 0-231 17-448 234-214 214-248 339-234 459 2 17 6 33 13 50 12 30 28 51 39 62l25 25c7 8 18 12 29 12 10 0 19-3 26-10l141-141c14-15 13-39-2-55l-88-88-2-2 5-8c5-8 10-18 15-28 26-47 62-111 130-179 68-68 132-103 179-129 10-6 20-11 28-16l8-5 90 90c7 7 18 12 29 12 10 0 19-4 26-10l141-141c14-15 14-39-2-55z m-231 420h-92v0l17 15c42 42 70 72 70 109 0 30-19 60-63 60-23 0-43-9-57-21l9-19c9 7 24 17 43 17 30 0 40-19 40-40 0-31-24-57-76-106l-21-21v-17h130v23z m115-23h26v55h29v22h-29v126h-30l-90-130v-18h94v-55z m-66 77v1l49 69c6 9 11 18 17 30h1c0-11-1-22-1-32v-68h-66z" horiz-adv-x="1000" />
<glyph glyph-name="delivery4" unicode="&#xe839;" d="m541 643h-377v-378h377v378z m-20-358h-337v338h337v-338z m85 363l-5-415h-437v-120h27c5-34 34-60 69-60s65 26 70 60h293c5-34 34-60 70-60s64 26 69 60h74v444l-230 91z m-297-535c-4-23-24-40-49-40s-44 17-49 40c0 3-1 6-1 10s1 6 1 10c5 22 25 40 49 40s45-18 49-40c1-4 1-7 1-10s0-7-1-10z m432 0c-4-23-24-40-49-40s-44 17-48 40c-1 3-2 6-2 10s1 6 2 10c4 22 24 40 48 40s45-18 49-40c1-4 1-7 1-10s0-7-1-10z m75 20h-54c-5 33-34 60-70 60s-64-27-69-60h-293c-5 33-34 60-70 60s-64-27-69-60h-7v80h437l5 405 190-75v-410z" horiz-adv-x="1000" />
<glyph glyph-name="unlocked30" unicode="&#xe83a;" d="m750 350h-16-359c0 6 0 9 0 16v218c0 79 63 141 141 141 78 0 140-62 140-141v-31-94c0-25 22-46 47-46 25 0 47 21 47 46v94 31c0 129-106 235-234 235-128 0-235-106-235-235v-234c-53 0-93-41-93-94v-312c0-53 40-94 93-94h469c53 0 94 41 94 94v312c0 50-41 94-94 94z m-437 234c0 113 90 204 203 204 112 0 203-91 203-204v-15-110c0-9-6-15-16-15-9 0-15 6-15 15v125c0 94-79 172-172 172-94 0-172-78-172-172v-234h-31c0 6 0 9 0 16v218z m500-640c0-35-29-63-63-63h-469c-34 0-62 28-62 63v312c0 35 28 63 62 63h469c34 0 63-28 63-63v-312z m-297 281c-44 0-78-34-78-78 0-25 12-47 31-63v-62c0-25 22-47 47-47 25 0 47 22 47 47v62c18 16 31 38 31 63 0 44-35 78-78 78z m15-122v-81c0-9-6-16-15-16-10 0-16 7-16 16v81c-19 6-31 25-31 44 0 25 22 47 47 47s47-22 47-47c0-22-13-38-32-44z" horiz-adv-x="1000" />
<glyph glyph-name="cogwheels7" unicode="&#xe83b;" d="m399 236c-83 0-150 68-150 150 0 83 67 150 150 150s150-67 150-150c0-82-68-150-150-150z m0 280c-72 0-130-58-130-130 0-71 58-130 130-130s130 59 130 130c0 72-59 130-130 130z m323-411c-51 0-93 42-93 93 0 52 42 93 93 93 52 0 94-41 94-93 0-51-42-93-94-93z m0 166c-40 0-73-32-73-73s33-73 73-73 74 33 74 73-33 73-74 73z m220-30h-40c-3 7-6 15-9 22l31 32c2 2 3 4 3 7 0 3-1 5-3 7l-68 69c-4 3-10 3-14 0l-31-31c-6 3-13 6-20 8v49c0 5-4 10-10 10h-32v39c0 6-5 10-10 10h-68c-4 15-10 29-17 43l53 53c4 3 4 10 0 14l-108 108c-4 4-10 4-14 0l-52-51c-12 6-25 11-38 16v80c0 6-4 10-10 10h-153c-6 0-10-4-10-10v-80c-11-4-22-8-33-14l-63 63c-3 4-10 4-14 0l-108-108c-2-2-3-5-3-7s1-5 3-7l61-62c-4-9-9-18-12-28h-94c-6 0-10-4-10-10v-153c0-6 4-10 10-10h87c3-10 6-20 10-29l-66-67c-2-2-3-4-3-7 0-2 1-5 3-7l108-108c4-4 10-4 14 0l59 58c10-5 20-11 31-15v-89c0-5 4-10 10-10h153c6 0 10 5 10 10v75c13 4 26 8 39 13l33-33-18-19c-4-4-4-10 0-14l68-68c4-4 11-4 14 0l35 35c5-3 11-6 16-8v-53c0-6 4-10 10-10h97c5 0 10 4 10 10v44c7 2 13 4 20 7l34-34c4-4 10-4 14 0l68 68c2 2 3 5 3 7 0 3-1 6-3 7l-28 29c4 7 7 14 10 22h45c5 0 10 4 10 10v97c0 5-5 10-10 10z m-479-102c-5-1-8-5-8-10v-73h-133v86c0 4-3 7-6 9-15 5-28 12-41 20-4 3-9 2-13-1l-57-57-94 94 64 65c3 3 4 7 2 11-5 13-10 26-14 39-1 5-5 8-9 8h-85v133h91c4 0 8 3 9 7 5 13 11 26 17 38 3 4 2 9-1 12l-60 60 94 94 61-61c3-3 8-4 12-2 14 8 28 13 43 18 4 1 7 5 7 9v78h133v-78c0-4 3-8 7-9 17-5 33-12 48-20 4-3 9-2 12 1l50 50 94-94-51-51c-3-3-4-8-2-12 9-17 16-34 21-52 1-5 5-8 9-8h66v-29h-45c-5 0-10-5-10-10v-49c-5-2-10-4-16-6l-38 38c-3 3-10 3-14 0l-68-69c-4-4-4-10 0-14l37-37c-2-4-4-9-6-14h-57c-6 0-10-4-10-10v-92c-13-5-26-9-39-12z m98-24l-21 21h24c2-4 3-9 5-13l-8-8z m371 29h-42c-4 0-8-3-9-7-4-11-9-21-15-31-3-4-2-9 1-12l27-28-54-54-32 32c-3 3-7 4-11 2-10-5-20-8-30-10-5-1-8-5-8-10v-42h-77v50c0 4-3 8-6 9-9 4-18 8-26 13-4 2-9 2-12-2l-34-33-54 54 38 38c3 3 4 8 2 12-3 8-6 16-8 24-2 4-6 7-10 7h-50v77h54c4 0 8 3 9 7 3 8 7 16 11 24 2 4 1 9-2 12l-35 35 54 54 36-36c3-3 8-3 12-1 8 4 17 8 26 10 5 2 8 6 8 10v46h44 32v-46c0-4 3-8 8-10 10-3 20-7 29-12 4-2 9-2 12 2l29 28 54-54-29-30c-3-3-4-7-2-11 5-11 9-22 12-33 2-4 6-7 10-7h38l0-77 0 0z" horiz-adv-x="1000" />
<glyph glyph-name="pencil19" unicode="&#xe83c;" d="m700 757l-111-111-311-312-125-323 324 124 333 334 0 0 89 89-199 199z m-492-691l28 72 44-45-72-27z m251 96l-147-56-64 64 49 128 71-72 22 22-77 78 210 210 55-56 22 22-55 56 22 22 56-55 22 22-56 55 22 22 100-99-276-277 22-22 276 276 33-33-307-307z m329 329l-154 155 66 66 155-154-67-67z" horiz-adv-x="1000" />
<glyph glyph-name="server13" unicode="&#xe83d;" d="m934 636l-406 159c-2 1-5 0-7-1-1 1-1 1-2 1h-450c-5 0-9-4-9-10v-871c0-5 4-9 9-9h450c1 0 1 0 2 0 1 0 2 0 3 0 1 0 2 0 2 0l407 78c4 0 7 4 7 9v635c0 4-2 8-6 9z m-425-712h-430v852h430v-852z m412 76l-387-74v846l387-151v-621z m-465 707h-339v-93h339v93z m-19-74h-301v54h301v-54z m-310-138h320c5 0 9 4 9 10v73c0 5-4 9-9 9h-320c-6 0-10-4-10-9v-73c0-6 4-10 10-10z m9 73h301v-54h-301v54z m158-238c-54 0-99-44-99-99 0-54 45-99 99-99 55 0 99 45 99 99 0 55-44 99-99 99z m0-178c-44 0-80 35-80 79 0 44 36 80 80 80 44 0 80-36 80-80 0-44-36-79-80-79z m-60 79c0 36 21 57 60 57 13 0 34-21 34-57 0-16-21-37-34-37-39 0-60 21-60 37z" horiz-adv-x="1000" />
<glyph glyph-name="ascending23" unicode="&#xe83e;" d="m908 668c-43 0-78-29-88-69l-94-12c-15 26-44 43-76 43-49 0-90-41-90-90 0-24 10-46 25-62l-84-189c0 0-1 0-1 0-15 0-29-4-42-10l-52 50c4 9 6 20 6 31 0 50-40 90-90 90-50 0-90-40-90-90 0-13 3-25 8-36l-113-119c-11 4-22 7-35 7-49 0-90-40-90-90s41-90 90-90c50 0 90 40 90 90 0 14-3 27-8 39l111 117c11-5 24-8 37-8 15 0 29 4 42 10l52-50c-4-10-6-20-6-31 0-50 40-90 90-90s90 40 90 90c0 26-11 50-29 66l82 185c3 0 5 0 7 0 45 0 81 32 89 74l89 12c16-29 46-48 80-48 49 0 90 41 90 90 0 50-41 90-90 90z m-816-596c-27 0-50 22-50 50s23 50 50 50 50-23 50-50-22-50-50-50z m180 288c0 28 22 50 50 50s50-22 50-50-22-50-50-50-50 22-50 50z m228-211c-28 0-50 22-50 50s22 50 50 50 50-22 50-50-22-50-50-50z m150 341c-27 0-50 22-50 50s23 50 50 50 50-23 50-50-22-50-50-50z m258 38c-28 0-50 23-50 50s22 50 50 50 50-22 50-50-23-50-50-50z" horiz-adv-x="1000" />
<glyph glyph-name="dribbble" unicode="&#xe83f;" d="m438 480q-30 54-66 109t-56 84-24 33q-82-40-139-112t-77-162q182 0 362 48z m50-132q8 4 14 4-10 28-32 68-182-56-402-56l0-14q0-150 100-262 4 8 13 21t39 50 64 69 89 66 115 54z m-270-306q-2 0-4 2l-4 4z m148 690z m354-86q-114 98-260 98-48 0-92-12 82-108 146-228 138 52 204 140z m-260-756q-190 0-325 135t-135 325 135 325 325 135 325-135 135-325-135-325-325-135z m68 396q-216-74-308-242l-2-2q110-84 242-84 78 0 154 32-24 140-84 298z m16 158q12-24 26-56 2-2 5-9t5-11q66 8 129 4t101-10 42-8q0 138-88 246l-8-10q-8-10-26-27t-42-36-62-42-82-41z m60-138q52-148 76-280 140 92 168 262-8 4-39 11t-88 12-117-5z" horiz-adv-x="920" />
<glyph glyph-name="pizza7" unicode="&#xe840;" d="m55 793l-5 2 378-888 1-2 10 4c111 48 211 115 296 201 93 92 164 201 211 322l4 10-895 351z m868-363c-46-115-114-218-202-305-81-82-176-146-281-193l-39 93c259 102 406 379 435 439l87-34z m-106 42c-30-59-173-329-425-428l-304 713 729-285z m-164-136c16 0 31 6 42 17 11 11 17 26 17 41 0 16-6 31-17 42-11 11-26 17-42 17-15 0-30-6-41-17-23-23-23-60 0-83 11-11 26-17 41-17z m-26 85c7 8 16 11 27 11 10 0 19-3 26-11 15-15 15-39 0-54-7-7-16-11-26-11-11 0-20 4-27 11-15 15-15 39 0 54z m-81-199c12 0 23 5 32 14 9 8 13 20 13 32 0 12-4 23-13 32-9 8-20 13-32 13-12 0-24-5-32-13-9-9-14-20-14-32s5-24 14-32c8-9 20-14 32-14z m0 70c6 0 13-2 17-7 5-4 7-11 7-17 0-7-2-13-7-18-4-4-11-7-17-7s-13 3-18 7c-4 5-7 11-7 18 0 6 3 13 7 17 5 5 11 7 18 7z m-102-89c-10 0-19-4-26-11-15-14-15-38 0-52 7-7 16-11 26-11s19 4 26 11c15 14 15 38 0 52-7 7-16 11-26 11z m-192 445c-10 0-19-4-26-11-7-7-11-16-11-26 0-10 4-20 11-27 7-7 16-10 26-10s20 3 27 10c14 15 14 39 0 53-7 7-17 11-27 11z m198-282c30 30 30 80 0 110-15 15-35 23-55 23s-41-8-55-23c-31-30-31-80 0-110 14-15 34-23 55-23 20 0 40 8 55 23z m-15 15c-11-11-25-17-40-17s-30 6-41 17c-10 11-16 25-16 40 0 15 6 30 16 40 11 11 25 17 41 17 15 0 29-6 40-17 22-22 22-58 0-80z" horiz-adv-x="1000" />
<glyph glyph-name="hot23" unicode="&#xe841;" d="m823 394h-106v89c0 5-4 9-9 9h-475c-5 0-10-4-10-9v-475c0-5 5-10 10-10h475c5 0 9 5 9 10v118h106c5 0 9 4 9 9v249c0 5-4 10-9 10z m-10-249h-105c-6 0-10-4-10-10v-117h-455v455h455v-89c0-5 4-10 10-10h105v-229z m-116 188v-146c0-5 4-10 10-10h63c5 0 10 5 10 10v146c0 5-5 9-10 9h-63c-6 0-10-4-10-9z m20-10h43v-126h-43v126z m-234 224c-20 4-63 16-67 35-3 10 9 25 33 41 31 21 45 37 45 53 0 19-15 30-33 43-19 15-40 31-46 58-1 5-6 9-11 8-3-1-5-2-6-4-2-3-2-5-2-8 7-34 33-54 54-69 13-10 25-19 24-27 0-6-6-18-36-38-32-22-46-42-41-62 8-36 75-48 83-49 0 0 1 0 2 0 4 0 8 3 9 8 1 5-3 10-8 11z" horiz-adv-x="1000" />
<glyph glyph-name="portfolio7" unicode="&#xe842;" d="m641 586v98h-269v-98h-249v-544h768v544h-250z m-245 75h222v-75h-222v75z m471-595h-721v337h107v-87h92v87h316v-87h92v87h114v-337z m-602 262v73h69v-73h-69z m408 0v73h69v-73h-69z m194 99h-721v135h226 269 226v-135z" horiz-adv-x="1000" />
<glyph glyph-name="twitter32" unicode="&#xe843;" d="m390-150c-225 0-374 110-380 115-9 7-13 19-8 29 4 11 15 17 26 16 22-3 44-5 65-5 105 0 178 37 219 65-134 33-182 161-185 168-3 8-1 16 4 23 5 7 13 11 22 10 1 0 2 0 3 0-113 79-113 216-113 217 0 9 4 17 11 21 8 5 17 5 24 2 7-4 13-6 19-9-111 148-20 292-19 294 4 6 11 10 19 11 8 0 16-3 21-9 146-179 363-229 445-242-4 37 0 92 23 143 27 62 76 108 142 132 36 13 72 19 106 19 93 0 152-48 176-71 70 19 125 53 126 53 8 5 19 5 27 0 8-6 12-16 10-26-6-33-24-63-43-88 28 9 45 18 45 18 10 5 22 4 30-3 8-8 10-20 5-30-19-41-89-102-115-124-3-361-222-640-560-713-48-11-97-16-145-16z m-262 106c62-27 153-56 262-56 45 0 90 5 135 15 317 69 521 334 519 675 0 8 4 15 10 20 16 13 37 32 57 52-15-4-32-6-51-8-11 0-21 6-25 16-4 10-1 22 7 29 1 0 30 24 54 57-25-11-55-22-88-29-10-3-20 1-26 8-2 3-53 65-148 65-28 0-58-6-89-17-53-19-91-53-113-102-28-65-20-133-15-145 3-8 2-17-3-24-5-7-13-11-22-10-12 0-291 22-487 235-19-51-35-154 78-253 6-6 9-15 8-23-1-8-6-16-14-19-4-2-11-4-24-4-16 0-34 3-56 11 11-51 45-137 158-169 8-3 15-9 17-18 2-9 0-18-7-24-8-8-27-17-73-18 26-42 81-105 180-107 10-1 18-6 22-15 4-9 3-20-4-27-4-4-91-102-262-115z m735 750c-42 0-76-33-76-75s34-75 76-75c41 0 75 33 75 75s-34 75-75 75z m0-91c-20 0-36 15-36 35 0 19 16 35 36 35 19 0 35-16 35-35 0-20-16-35-35-35z" horiz-adv-x="1212.9" />
<glyph glyph-name="user85" unicode="&#xe844;" d="m910-150h-820c-50 0-90 40-90 90l3 72c75 158 191 191 196 192l8 2h59c47 0 86 38 86 85v28c-24 30-41 62-52 96l-2 7c-36 33-45 86-22 126 1 2 2 5 4 7l0 34c0 22 0 45 0 67 2 43 14 81 34 110 24 36 63 63 109 75 44 11 93 12 141 3 43-8 79-27 106-55 31-33 49-81 50-136 0-25 0-49 0-73l0-25c1-1 2-2 2-4 24-37 18-91-15-124l-5-5c-13-40-31-75-54-104v-27c0-47 39-85 86-85l67-2c5-1 121-34 196-192l3-14v-58c0-50-40-90-90-90z m-847 141v-51c0-15 12-28 27-28h820c15 0 28 13 28 28v51c-56 113-133 146-150 152h-54c-81 0-148 67-148 148v50l7 8c23 27 39 59 50 95 2 12 13 21 18 25 14 14 17 36 7 51-4 6-11 16-10 31v29c0 24 0 48-1 72 0 39-12 72-33 94-22 23-51 33-72 37-39 7-78 6-114-3-31-8-57-25-72-49-14-20-22-46-23-76-1-22-1-44 0-66v-38c1-13-7-24-11-30-10-18-6-41 8-52 12-9 16-23 19-31 10-33 26-62 48-88l7-8v-51c0-81-66-148-148-148h-54c-17-6-94-39-149-152z" horiz-adv-x="1000" />
<glyph glyph-name="user89" unicode="&#xe845;" d="m910-150h-820c-50 0-90 40-90 90l3 131c75 157 191 191 196 192l8 1h59c46 0 84 37 86 82-53 67-88 163-88 238 0 177 79 266 236 266 157 0 236-89 236-266 0-75-35-171-87-238 2-45 39-82 85-82l67-1c5-1 121-35 196-192l3-14v-117c0-50-40-90-90-90z m-847 200v-110c0-15 12-28 27-28h820c15 0 28 13 28 28v110c-56 113-133 146-150 152h-54c-81 0-148 66-148 148v19l7 9c47 55 81 142 81 206 0 143-52 204-174 204s-174-61-174-204c0-64 34-151 81-206l7-9v-19c0-82-66-148-148-148h-54c-17-7-94-39-149-152z" horiz-adv-x="1000" />
<glyph glyph-name="quote2" unicode="&#xe846;" d="m597 386h-125c-15 0-28 5-38 15-10 11-16 23-16 38v18c0 40 14 73 42 101 28 28 62 42 101 42h36c10 0 18 4 25 11 7 7 11 15 11 25v71c0 10-4 18-11 25-7 7-15 11-25 11h-36c-38 0-75-8-111-23-35-15-65-35-91-61-25-25-46-56-61-91-15-35-23-72-23-111v-393c0-29 11-55 32-76 21-20 46-31 76-31h214c30 0 55 11 76 31 21 21 31 47 31 76v215c0 29-10 55-31 76-21 20-46 31-76 31z m576-31c-21 20-46 31-76 31h-125c-15 0-28 5-38 15-10 11-16 23-16 38v18c0 40 14 73 42 101 28 28 62 42 101 42h36c10 0 18 4 25 11 7 7 11 15 11 25v71c0 10-4 18-11 25-7 7-15 11-25 11h-36c-38 0-75-8-111-23-35-15-65-35-91-61-25-25-46-56-61-91-15-35-22-72-22-111v-393c0-29 10-55 31-76 21-20 46-31 76-31h214c30 0 55 11 76 31 21 21 31 47 31 76v215c0 29-10 55-31 76z" horiz-adv-x="1478.5" />
<glyph glyph-name="arrow395" unicode="&#xe847;" d="m710-81l-443 431 443 431 23-24-419-407 419-407z" horiz-adv-x="1000" />
<glyph glyph-name="rss-1" unicode="&#xe848;" d="m0-16q0 55 39 94t94 39 94-39 39-94q0-56-39-95t-94-38-94 39-39 94z m0 335l0 191q179 0 331-88t241-241 88-331l-192 0q0 194-137 331-138 138-331 138z m0 339l0 192q203 0 388-79t319-214 214-319 79-388l-192 0q0 164-64 314t-172 258-258 172-314 64z" horiz-adv-x="1000" />
<glyph glyph-name="favourites-1" unicode="&#xe849;" d="m865 428c-1 4-6 14-22 14h-245l-76 233c-5 15-15 17-19 17-5 0-15-2-20-17l-76-233h-245c-16 0-21-11-22-14-1-3-4-14 10-23l198-145-76-233c-3-10 0-17 2-21 7-9 20-10 30-2l199 144 198-144c5-4 10-6 15-6 6 0 11 3 15 8 3 4 5 11 2 21l-76 233 199 145c12 9 11 19 9 23z m-237-148c-5-4-8-12-6-19l69-209-179 129c-5 4-13 4-19 0l-178-129 68 210c2 6 0 14-6 18l-179 129h221c7 0 13 5 15 12l69 209 68-210c2-6 8-11 15-11h221l-179-129z" horiz-adv-x="1000" />
<glyph glyph-name="list58" unicode="&#xe84a;" d="m137 850c-76 0-137-61-137-137 0-76 61-137 137-137 76 0 137 61 137 137 0 76-61 137-137 137z m0-202c-36 0-64 29-64 65 0 36 28 64 64 64s64-28 64-64c0-36-29-65-64-65z m274 29h581c20 0 37 16 37 36 0 20-17 36-37 36h-581c-20 0-37-16-37-36 0-20 17-36 37-36z m-274-190c-76 0-137-61-137-137 0-76 61-137 137-137 76 0 137 61 137 137 0 76-61 137-137 137z m0-201c-36 0-64 28-64 64 0 36 28 65 64 65s64-29 64-65c0-36-29-64-64-64z m855 100h-581c-20 0-37-16-37-36 0-20 17-36 37-36h581c20 0 37 16 37 36 0 20-17 36-37 36z m-855-262c-76 0-137-61-137-137s61-137 137-137c76 0 137 61 137 137s-61 137-137 137z m0-201c-36 0-64 28-64 64 0 36 28 65 64 65s64-29 64-65c0-36-29-64-64-64z m855 100h-581c-20 0-37-16-37-36 0-20 17-36 37-36h581c20 0 37 16 37 36 0 20-17 36-37 36z" horiz-adv-x="1029.3" />
<glyph glyph-name="delicious" unicode="&#xe84b;" d="m0-150l0 501 501 0 0-501-501 0z m509 499l0 501 500 0 0-501-500 0z" horiz-adv-x="1009" />
<glyph glyph-name="flickr" unicode="&#xe84c;" d="m0 350q0 104 73 177t177 73 177-73 73-177-73-177-177-73-177 73-73 177z m552 0q0 104 73 177t177 73 177-73 73-177-73-177-177-73-177 73-73 177z" horiz-adv-x="1052" />
<glyph glyph-name="skype" unicode="&#xe84d;" d="m0 577q0 113 80 193t193 80q78 0 145-42 36 7 80 7 195 0 333-138t138-332q0-49-11-101 28-59 28-121 0-113-80-193t-193-80q-68 0-129 32-45-8-86-8-194 0-332 138t-138 333q0 47 9 94-37 65-37 138z m221-366q0-41 30-85 71-104 246-104 50 0 97 11t87 34 66 64 25 94q0 58-29 98t-74 58-95 33-96 23-73 26-30 44q0 33 37 49t74 16q40 0 66-12t38-30 21-35 25-30 39-13q27 0 48 19t20 46-15 54q-30 55-95 80t-138 25q-46 0-89-9t-83-29-64-56-25-87q0-66 40-106t97-57 115-29 97-33 40-59q0-29-23-49t-50-27-57-7q-38 0-64 11t-39 27-22 35-18 35-23 27-37 10q-28 0-48-17t-21-45z" horiz-adv-x="986" />
<glyph glyph-name="bullet4" unicode="&#xe84e;" d="m178 767c-46 0-84-37-84-84s38-83 84-83c46 0 83 37 83 83s-37 84-83 84z m0-142c-32 0-59 26-59 58 0 33 27 59 59 59 32 0 58-26 58-59 0-32-26-58-58-58z m0-188c-46 0-84-38-84-84 0-46 38-83 84-83 46 0 83 37 83 83 0 46-37 84-83 84z m0-142c-32 0-59 26-59 58 0 33 27 59 59 59 32 0 58-26 58-59 0-32-26-58-58-58z m0-195c-46 0-84-37-84-83s38-84 84-84c46 0 83 37 83 84s-37 83-83 83z m0-142c-32 0-59 26-59 59 0 32 27 58 59 58 32 0 58-26 58-58 0-33-26-59-58-59z m224 739l504 0 0-28-500 0z m0-343l504 0 0-28-500 0z m0-318l504 0 0-28-500 0z" horiz-adv-x="1000" />
<glyph glyph-name="square40" unicode="&#xe84f;" d="m610 660h-20-180-20-200v-200-20-180-20-200h200 20 180 20 200v200 20 180 20 200h-200z m-20-20v-180h-180v180h180z m0-200v-180h-180v180h180z m-380 200h180v-180h-180v180z m0-200h180v-180h-180v180z m0-380v180h180v-180h-180z m200 0v180h180v-180h-180z m380 0h-180v180h180v-180z m0 200h-180v180h180v-180z m-180 200v180h180v-180h-180z" horiz-adv-x="1000" />
<glyph glyph-name="table41-1" unicode="&#xe850;" d="m0 850v-1000h1000v1000h-1000z m936-627h-248v252h248v-252z m-311 0h-250v252h250v-252z m0-60v-251h-250v251h250z m-562 312h250v-252h-250v252z m312 63v248h250v-248h-250z m-62 248v-248h-250v248h250z m-250-623h250v-251h-250v251z m625-251v251h248v-251h-248z m248 626h-248v248h248v-248z" horiz-adv-x="1000" />
<glyph glyph-name="star105-1" unicode="&#xe851;" d="m43 437c75-69 155-132 241-187-28-96-59-192-93-288-6-17 6-29 20-32 7-4 16-5 26 2 83 60 169 116 253 174 86-62 169-128 259-185 20-12 38 5 39 23 1 4 2 8 0 13-23 96-51 191-94 280 92 59 166 140 252 206 16 13 9 31-4 40-5 5-11 9-20 9h-289c-38 97-78 194-109 293-9 30-52 22-53-4-45-96-86-193-110-297-103 1-205 5-308 6-31 0-34-44-10-53z m331-7c2 0 5 0 7 1 12-2 24 4 27 19 18 88 50 172 87 253 28-81 61-162 93-242 0-1 0-1 0-1 2-12 11-22 26-22h242c-67-58-130-120-207-165-6-4-9-8-11-13-5-7-7-17-1-27 37-73 62-150 83-228-71 49-141 103-211 154-2 2-4 3-6 4-7 5-17 6-27-1-69-48-139-94-208-142 26 76 50 153 73 230 3 13-2 22-10 28-1 5-5 10-11 14-68 42-132 90-193 143 83-2 165-5 247-5z" horiz-adv-x="1000" />
<glyph glyph-name="move13" unicode="&#xe852;" d="m262-138l-26 27 475 461-475 461 26 27 502-488z" horiz-adv-x="1000" />
<glyph glyph-name="profile4" unicode="&#xe853;" d="m528 759c-8 0-14 0-17 0-3 0-10 1-18 1-27 0-79-6-119-47-38-38-57-96-57-172 1-132 51-210 94-251 47-46 93-60 95-61 2 0 3 0 5 0 1 0 2 0 4 0 2 1 209 59 199 312-7 203-144 218-186 218z m-17-498c-26 9-162 68-162 280-1 68 15 118 47 150 32 32 75 37 97 37 9 0 15-1 15-1 2 0 4 0 5 0 0 0 6 1 15 1 44 0 149-18 155-188 8-211-144-270-172-279z m166 26c-2-8 3-17 11-19 42-11 145-44 201-118v-170h-737v170c56 73 157 106 198 117 8 3 13 11 11 20-2 8-11 13-19 11-56-15-159-53-218-134-2-2-3-5-3-9v-191c0-8 7-15 16-15h767c9 0 16 7 16 15v191c0 4-1 7-3 9-61 85-175 122-221 134-8 3-17-2-19-11z" horiz-adv-x="1000" />
<glyph glyph-name="right240-1" unicode="&#xe854;" d="m970 331l-228 131c-9 6-21 3-26-7-6-9-3-21 7-26l164-95h-839c-11 0-20-9-20-20 0-11 9-19 20-19h839l-164-95c-10-6-13-18-7-27 3-6 10-10 16-10 4 0 7 1 10 3l228 131c6 4 10 10 10 17 0 7-4 14-10 17z" horiz-adv-x="1000" />
<glyph glyph-name="graphs" unicode="&#xe855;" d="m963 269l-160 75c0 2 1 5 1 7 0 34-28 62-62 62-35 0-63-28-63-62 0-12 4-23 10-33l-162-182c-9 5-20 8-31 8-15 0-29-5-40-14l-96 73c3 7 5 15 5 23 0 34-28 62-62 62-35 0-62-28-62-62 0-5 0-11 2-16l-189-116c-6-4-8-12-4-18 3-4 7-7 11-7 3 0 5 1 7 2l187 116c11-14 28-23 48-23 16 0 31 7 42 17l95-72c-4-8-7-17-7-26 0-35 28-62 63-62s62 27 62 62c0 13-4 25-12 35l161 182c10-7 22-11 35-11 22 0 42 12 52 30l158-73c7-4 14-1 17 6 4 6 1 14-6 17z m-625-49c-2-9-7-17-14-23-6-4-13-6-21-6-10 0-19 3-25 10-7 6-11 15-11 24 0 1 0 1 0 1 0 20 16 36 36 36 20 0 36-16 36-36 0-2-1-4-1-6z m158-173c-20 0-36 16-36 35 0 4 1 8 2 11 2 9 8 16 16 20 5 3 11 5 18 5 4 0 9-1 13-3 8-3 15-9 19-18 2-4 3-9 3-15 1-19-16-35-35-35z m274 283c-6-9-17-14-28-14-6 0-12 1-17 4-8 4-14 11-17 20-1 3-2 7-2 11 0 20 16 36 36 36 18 0 33-14 35-31 0-2 1-3 1-5 0-8-3-15-8-21z m-568 39c10-6 21-10 34-10 24 0 44 13 55 33l157-44c0 0 0 0 0-1 0-34 28-61 62-61 35 0 63 27 63 61 0 6-2 12-3 17l217 216c11-8 23-12 37-12 34 0 62 27 62 61s-28 62-62 62c-35 0-62-28-62-62 0-11 3-21 8-30l-213-211c-12 13-28 21-47 21-25 0-46-14-56-35l-156 43c0 1 0 2 0 4 0 34-27 62-62 62-34 0-62-28-62-62 0-12 4-23 9-33l-150-167c-5-6-5-14 1-19 2-2 6-3 9-3 3 0 7 1 10 4l149 166z m622 296c20 0 36-16 36-36 0-19-16-35-36-35-20 0-36 16-36 35 0 20 16 36 36 36z m-314-282c20 0 36-16 36-36 0-19-16-35-36-35-19 0-36 16-36 35 0 20 17 36 36 36z m-274 73c20 0 36-16 36-35 0-20-16-36-36-36-20 0-36 16-36 36 0 19 16 35 36 35z" horiz-adv-x="1000" />
<glyph glyph-name="pensil" unicode="&#xe856;" d="m76-56c0-3 1-6 3-9s6-3 9-3l248 30c2 0 4 1 6 3l447 447c1 1 2 3 2 5 2 0 4 1 5 2l116 116c4 4 4 11 0 15l-218 218c-4 4-11 4-15 0l-69-70c-5-4-5-11 0-15 4-4 11-4 15 0l62 62 202-202-108-108-210 210c-4 4-11 4-15 0l-447-447c-2-2-3-4-3-6l-30-248z m488 677l93-93-339-339c-4-4-4-11 0-15 4-4 11-4 15 0l339 339 93-94-436-436-229-28 25 212 85-85c4-5 11-5 16 0 4 4 4 11 0 15l-94 93 432 431z" horiz-adv-x="1000" />
<glyph glyph-name="pizza" unicode="&#xe857;" d="m39 815l-6 2 393-931 1-3 9 5c116 49 219 120 308 210 96 97 170 211 219 338l4 10-928 369z m34-38l755-299c-30-62-179-345-440-449l-315 748z m656-664c-84-85-182-153-291-201l-41 97c269 107 421 398 451 461l91-36c-48-120-119-228-210-321z m-27 240c12 12 18 27 18 44 0 16-6 32-18 43-11 12-27 18-43 18-16 0-32-6-43-18-24-24-24-63 0-87 12-12 27-18 43-18 16 0 32 6 43 18z m-71 72c8 7 18 12 28 12 11 0 21-5 28-12 15-16 15-41 0-57-7-7-17-11-28-11s-20 4-28 11c-15 16-15 41 0 57z m-83-114c-13 0-25-5-34-14-9-9-13-20-13-33 0-13 4-25 13-34 9-9 21-14 34-14 12 0 24 5 33 14 9 9 14 21 14 34 0 12-5 24-14 33-9 9-21 14-33 14z m18-66c-5-4-12-7-18-7-7 0-14 3-19 7-4 5-7 12-7 19 0 7 3 13 7 18 5 5 12 8 19 8 6 0 13-3 18-8 4-5 7-11 7-18 0-7-3-14-7-19z m-124-49c-10 0-20-4-27-11-15-16-15-40 0-56 7-7 17-11 27-11 10 0 20 4 27 11 15 16 15 40 0 56-7 7-17 11-27 11z m-199 467c-10 0-20-4-27-12-7-7-11-17-11-27 0-11 4-21 11-28 7-7 17-12 27-12 10 0 20 5 28 12 15 15 15 40 0 55-8 8-17 12-28 12z m205-181c-16 16-36 24-57 24s-42-8-57-24c-32-32-32-83 0-115 15-15 35-24 57-24 21 0 42 9 57 24 31 32 31 83 0 115z m-57-117c-16 0-31 6-42 17-11 12-17 27-17 43 0 16 6 31 17 42 11 11 26 17 42 17 16 0 30-6 41-17 23-23 23-61 0-85-11-11-26-17-41-17z" horiz-adv-x="1000" />
<glyph glyph-name="server" unicode="&#xe858;" d="m964 662l-434 170c-3 1-5 1-8 0 0 0-1 0-2 0h-480c-6 0-11-4-11-10v-932c0-6 5-10 11-10h480c1 0 2 0 3 0 1 0 2-1 3-1 1 0 1 0 2 1l434 83c5 1 9 5 9 10v680c0 4-3 8-7 9z m-454-762h-460v912h460v-912z m440 81l-414-79v906l414-162v-665z m-497 757h-362v-99h362v99z m-20-79h-322v58h322v-58z m-332-148h342c6 0 10 5 10 11v78c0 6-4 10-10 10h-342c-6 0-10-4-10-10v-78c0-6 4-11 10-11z m10 79h322v-58h-322v58z m169-255c-58 0-106-48-106-106 0-58 48-106 106-106 58 0 106 48 106 106 0 58-48 106-106 106z m0-191c-47 0-85 38-85 85 0 47 38 85 85 85s85-38 85-85c0-47-38-85-85-85z m0 138c-30 0-53-23-53-53s23-54 53-54c29 0 53 24 53 54s-24 53-53 53z" horiz-adv-x="1000" />
<glyph glyph-name="settings" unicode="&#xe859;" d="m394 543c-86 0-156-70-156-155 0-86 70-156 156-156 86 0 157 70 157 156 0 85-71 155-157 155z m0-290c-74 0-135 61-135 135 0 74 61 134 135 134 75 0 136-60 136-134 0-74-61-135-136-135z m338 36c-54 0-97-43-97-96 0-53 43-97 97-97s97 44 97 97c0 53-44 96-97 96z m0-172c-42 0-76 34-76 76s34 76 76 76c42 0 76-34 76-76s-34-76-76-76z m228 120h-41c-3 8-6 16-10 23l33 33c2 2 3 4 3 7 0 3-1 6-3 8l-71 71c-4 4-11 4-15 0l-32-32c-6 3-13 6-20 8v51c0 5-5 10-11 10h-34v41c0 5-5 10-10 10h-71c-4 15-10 30-17 44l55 55c4 4 4 10 0 14l-113 113c-4 4-11 4-15 0l-53-53c-13 6-26 12-40 16v84c0 5-5 10-10 10h-160c-6 0-11-5-11-10v-84c-11-4-23-8-34-14l-65 65c-4 4-11 4-15 0l-113-112c-2-2-3-4-3-7s1-6 3-7l64-64c-5-9-9-19-13-29h-98c-6 0-11-5-11-11v-158c0-6 5-11 11-11h91c3-10 7-20 11-29l-70-69c-2-2-3-5-3-8 0-2 1-5 3-7l113-112c4-4 11-4 15 0l61 60c11-6 21-11 32-16v-91c0-6 5-11 11-11h160c5 0 10 5 10 11v77c14 4 27 8 41 14l34-35-19-19c-4-4-4-11 0-15l71-71c5-4 11-4 15 0l37 37c5-3 10-6 16-8v-56c0-5 4-10 10-10h101c6 0 10 5 10 10v46c8 2 15 5 21 7l36-35c4-4 11-4 15 0l71 71c2 2 3 5 3 7 0 3-1 6-3 8l-30 29c4 8 8 15 11 23h46c6 0 11 4 11 10v101c0 5-5 10-11 10z m-448 13c-6 0-10-4-10-10v-96c-13-5-27-9-41-12-4-1-8-6-8-10v-76h-139v88c0 4-2 8-6 10-15 6-30 13-43 21-4 3-9 2-13-1l-59-59-99 97 68 67c3 3 3 8 2 12-6 13-11 27-15 40-1 5-5 8-10 8h-89v138h95c5 0 9 3 10 7 5 14 11 27 18 40 2 4 2 9-2 12l-62 62 99 97 63-63c3-3 8-3 12-1 15 7 30 13 45 18 4 1 7 5 7 10v80h139v-80c0-5 3-9 8-10 17-6 34-13 50-21 4-2 9-2 12 2l52 51 98-98-53-52c-3-4-4-9-2-13 9-17 16-35 21-54 1-4 5-8 10-8h68v-30h-46c-5 0-10-5-10-10v-51c-6-2-11-4-17-6l-39 39c-4 4-11 4-15 0l-72-71c-4-4-4-11 0-15l39-38c-2-5-4-9-6-14h-60z m30-121h25c1-5 3-9 5-14l-8-8-22 22z m408 8h-43c-5 0-9-3-10-7-4-12-9-23-16-33-2-4-2-9 2-12l28-29-57-56-33 33c-3 3-8 4-12 2-10-4-20-8-31-10-5-1-8-5-8-10v-44h-80v52c0 4-3 8-7 9-9 4-18 8-26 14-5 2-10 1-13-2l-35-35-57 57 40 39c3 3 4 8 2 12-4 8-7 17-9 25-1 5-5 8-10 8h-52v79h56c4 0 8 3 10 7 3 9 6 17 11 25 2 4 1 9-2 12l-36 37 56 56 38-37c3-4 8-4 12-2 9 4 18 8 27 11 5 1 8 5 8 10v47h80v-47c0-5 3-9 7-10 11-3 21-8 31-13 4-2 9-1 13 2l30 30 56-57-30-30c-4-4-4-8-2-12 5-11 10-23 13-34 1-5 5-8 10-8h39l0-79z" horiz-adv-x="1000" />
<glyph glyph-name="coffee" unicode="&#xe85a;" d="m870 362h-132v109c0 6-6 12-12 12h-595c-7 0-13-6-13-12v-582c0-6 6-12 13-12h595c6 0 12 6 12 12v145h132c6 0 12 5 12 12v304c0 7-6 12-12 12z m-13-305h-131c-7 0-13-5-13-11v-145h-570v558h570v-109c0-7 6-12 13-12h131v-281z m-145 230v-178c0-7 6-12 12-12h79c7 0 13 5 13 12v178c0 7-6 12-13 12h-79c-6 0-12-5-12-12z m25-12h54v-154h-54v154z m-349 388c-41-27-58-52-53-76 10-44 95-59 105-61 1 0 1 0 2 0 6 0 11 4 12 10 1 7-3 13-10 14-25 4-80 20-85 42-3 13 12 31 42 51 39 26 56 46 57 66 0 22-19 36-41 52-24 18-51 38-58 71-2 6-8 11-15 9-3 0-6-2-7-5-2-2-3-6-2-9 8-42 41-66 67-85 17-12 31-23 31-33 0-7-8-21-45-46z" horiz-adv-x="1000" />
<glyph glyph-name="bag" unicode="&#xe85b;" d="m656 615v113h-312v-113h-288v-621h889v621h-289z m-284 86h256v-86h-256v86z m545-680h-834v386h124v-100h106v100h366v-100h106v100h132v-386z m-697 300v84h80v-84h-80z m473 0v84h79v-84h-79z m224 113h-834v154h261 312 261v-154l0 0z" horiz-adv-x="1000" />
<glyph glyph-name="plain9" unicode="&#xe85c;" d="m764 390c9-2 18 1 25 8l164 164c34 34 48 70 47 106-1 37-39 79-48 87-61 61-142 94-228 94-87 0-169-34-230-95l-399-399c-126-126-127-332-1-458 7-8 44-46 97-46 34 0 66 15 96 45l132 132c6 6 9 13 8 21l-12 228 155 155 194-42z m-222 91l-174-174c-6-6-9-13-8-21l12-228-123-124c-20-19-39-29-58-29-33 0-58 29-58 30-105 105-105 276 0 382l400 399c50 51 118 79 191 79 71 0 139-28 190-78 1-2 30-27 32-53 1-20-9-41-31-64l-154-154-194 43c-9 2-18-1-25-8z" horiz-adv-x="1000" />
<glyph glyph-name="skype7" unicode="&#xe85d;" d="m967 250c6 31 10 63 10 95 0 260-212 471-472 471-24 0-49-2-73-5-44 25-93 39-144 39-155 0-281-126-281-281 0-48 12-95 35-136-6-29-8-58-8-88 0-260 211-471 471-471 27 0 54 2 80 6 39-20 83-30 127-30 155 0 281 126 281 281 0 42-9 82-26 119z m-255-362c-40 0-80 10-115 29l-6 3-6-1c-27-5-53-8-80-8-239 0-433 195-433 434 0 29 3 59 8 87l2 7-4 7c-22 37-33 79-33 123 0 134 109 243 243 243 46 0 91-13 130-37l6-4 7 1c24 4 49 6 74 6 239 0 434-194 434-433 0-31-4-63-10-93l-2-7 3-6c17-33 25-70 25-108 0-134-109-243-243-243z m-33 451c-19 12-42 23-70 32-28 9-61 18-97 25-31 8-52 13-64 16-14 4-29 10-42 16-16 8-28 18-37 29-11 13-16 28-16 45 0 28 14 51 42 69 24 16 56 25 95 25 42 0 73-8 94-24 19-15 36-35 49-60 9-16 16-24 20-28 3-3 10-4 19-4 10 0 18 3 25 10 6 7 10 14 10 23 0 11-4 24-11 37-7 13-19 27-36 40-17 13-39 24-65 32-27 8-59 12-96 12-47 0-89-6-123-19-32-12-57-29-74-51-16-21-24-45-24-73 0-29 7-53 22-71 16-20 38-37 66-48 30-13 68-24 113-34 35-7 64-15 86-21 24-8 44-19 60-34 18-17 27-39 27-65 0-33-16-60-47-82-28-19-64-29-108-29-32 0-58 5-79 15-21 10-37 23-49 39-11 14-21 31-30 52-5 13-11 22-18 28-5 4-12 6-20 6-11 0-20-3-26-9-7-6-10-13-10-21 0-20 8-42 24-64 16-24 38-43 64-57 38-20 87-30 147-30 50 0 94 7 130 22 35 15 61 35 79 60 17 24 26 52 26 83 0 26-5 48-15 65-9 17-23 32-41 43z" horiz-adv-x="1000" />
<glyph glyph-name="email20" unicode="&#xe85e;" d="m0 681v-662h1000v662h-1000z m500-409l-410 360h820l-410-360z m-163 78l-288-252v505l288-253z m37-33l126-110 126 110 284-249h-820l284 249z m289 33l288 253v-505l-288 252z" horiz-adv-x="1000" />
<glyph glyph-name="spin3" unicode="&#xe860;" d="m494 850c-266 0-483-210-494-472-1-19 13-20 13-20l84 0c16 0 19 10 19 18 10 199 176 358 378 358 107 0 205-45 273-118l-58-57c-11-12-11-27 5-31l247-50c21-5 46 11 37 44l-58 227c-2 9-16 22-29 13l-65-60c-89 91-214 148-352 148z m409-508c-16 0-19-10-19-18-10-199-176-358-377-358-108 0-205 45-274 118l59 57c10 12 10 27-5 31l-248 50c-21 5-46-11-37-44l58-227c2-9 16-22 30-13l64 60c89-91 214-148 353-148 265 0 482 210 493 473 1 18-13 19-13 19l-84 0z" horiz-adv-x="1000" />
</font>
</defs>
</svg>
